<?xml version="1.0" standalone="no"?>
<!DOCTYPE svg PUBLIC "-//W3C//DTD SVG 20010904//EN"
 "http://www.w3.org/TR/2001/REC-SVG-20010904/DTD/svg10.dtd">
<svg version="1.0" xmlns="http://www.w3.org/2000/svg"
 width="1200.000000pt" height="1200.000000pt" viewBox="0 0 1200.000000 1200.000000"
 preserveAspectRatio="xMidYMid meet">

<g transform="translate(0.000000,1200.000000) scale(0.100000,-0.100000)"
fill="#000000" stroke="none">
<path d="M3420 7090 c-30 -30 -27 -83 6 -109 78 -61 182 40 111 107 -30 29
-89 30 -117 2z"/>
<path d="M5580 7090 c-30 -30 -27 -83 6 -109 78 -61 182 40 111 107 -30 29
-89 30 -117 2z"/>
<path d="M1804 6668 l1 -373 238 -3 237 -2 0 55 0 55 -175 0 -175 0 0 110 0
110 145 0 145 0 0 55 0 55 -145 0 -145 0 0 100 0 100 178 2 177 3 0 50 0 50
-241 3 -240 2 0 -372z"/>
<path d="M6181 6733 c55 -170 109 -338 120 -375 l21 -68 44 0 c24 0 44 2 44 5
0 3 52 168 115 368 63 200 115 366 115 370 0 4 -27 7 -60 7 -58 0 -59 0 -68
-32 -111 -401 -137 -488 -142 -488 -3 0 -29 80 -58 178 -29 97 -63 214 -77
260 l-26 82 -63 0 -63 0 98 -307z"/>
<path d="M6997 7030 c-47 -12 -109 -44 -127 -65 -12 -14 -9 -21 22 -52 l36
-35 31 22 c20 15 49 25 85 28 51 4 57 2 86 -26 20 -21 30 -40 30 -61 0 -69
-40 -105 -128 -117 l-52 -7 0 -46 0 -47 33 3 c47 6 117 -19 139 -47 62 -84 5
-200 -99 -200 -40 0 -116 40 -128 68 -5 12 -12 22 -15 22 -3 0 -20 -23 -38
-51 -31 -48 -32 -52 -17 -69 9 -10 40 -28 68 -41 72 -32 204 -33 263 -2 151
80 163 281 21 358 l-35 19 39 28 c49 35 70 77 71 137 0 73 -35 128 -107 164
-39 20 -130 28 -178 17z"/>
<path d="M8270 6666 l0 -376 93 0 c294 0 402 89 415 341 5 109 -7 179 -44 253
-59 118 -118 147 -321 154 l-143 5 0 -377z m262 258 c37 -7 94 -73 109 -126
20 -67 17 -224 -4 -280 -31 -81 -105 -128 -199 -128 l-38 0 0 268 c0 148 3
272 7 276 7 7 60 3 125 -10z"/>
<path d="M2800 6834 c-19 -8 -50 -31 -67 -52 l-33 -37 0 48 0 47 -65 0 -65 0
0 -275 0 -275 65 0 65 0 0 158 c0 183 8 219 56 261 28 25 43 31 82 31 54 -1
89 -17 107 -51 12 -22 14 -21 43 38 30 59 31 61 12 78 -46 42 -139 55 -200 29z"/>
<path d="M4195 6836 c-16 -7 -45 -28 -62 -46 l-33 -34 0 42 0 42 -65 0 -65 0
0 -275 0 -275 65 0 65 0 0 180 c0 201 6 226 63 260 45 28 88 26 118 -6 24 -25
24 -29 27 -230 l3 -204 65 0 64 0 0 193 c0 199 -7 251 -43 301 -39 56 -136 81
-202 52z"/>
<path d="M4821 6838 c-49 -17 -107 -76 -121 -125 -16 -51 -7 -100 26 -148 l25
-38 -26 -27 c-37 -38 -44 -93 -17 -130 l21 -29 -34 -34 c-72 -72 -32 -166 85
-201 106 -32 250 -16 321 34 71 51 87 164 29 221 -35 35 -86 49 -185 50 -104
0 -150 15 -150 49 0 24 2 25 80 26 44 1 92 6 106 12 92 37 140 144 104 234 -5
13 2 19 35 28 22 6 49 9 58 6 15 -5 17 0 14 39 -4 42 -6 45 -33 45 -16 0 -52
-9 -80 -20 -48 -18 -54 -18 -82 -3 -39 20 -132 25 -176 11z m122 -100 c33 -17
46 -39 47 -76 0 -79 -100 -113 -162 -54 -74 69 24 179 115 130z m34 -434 c34
-3 67 -12 73 -19 21 -25 7 -59 -30 -77 -66 -33 -236 -17 -261 24 -9 15 7 60
27 75 15 11 30 11 191 -3z"/>
<path d="M9180 6841 c-73 -23 -136 -79 -166 -149 -8 -20 -18 -66 -21 -103 -14
-164 74 -278 234 -304 105 -17 269 62 222 106 -42 41 -47 42 -74 21 -56 -45
-169 -36 -218 17 -14 14 -30 43 -35 64 l-10 37 184 0 c183 0 184 0 189 23 8
30 -10 138 -28 174 -49 93 -175 145 -277 114z m146 -122 c13 -13 26 -39 30
-56 l7 -33 -122 0 c-109 0 -121 2 -121 18 0 24 34 73 62 89 36 21 115 11 144
-18z"/>
<path d="M3290 6790 l0 -50 65 0 65 0 0 -175 0 -175 -70 0 -70 0 0 -50 0 -50
200 0 200 0 0 50 0 50 -65 0 -65 0 0 225 0 225 -130 0 -130 0 0 -50z"/>
<path d="M5450 6790 l0 -50 65 0 65 0 0 -175 0 -175 -70 0 -70 0 0 -50 0 -50
200 0 200 0 0 50 0 50 -65 0 -65 0 0 225 0 225 -130 0 -130 0 0 -50z"/>
<path d="M9700 6838 c0 -2 46 -124 103 -273 l103 -270 51 -3 50 -3 63 148 c87
206 129 318 136 364 l7 39 -60 0 -59 0 -11 -63 c-14 -86 -105 -313 -117 -295
-5 8 -36 91 -70 184 l-61 169 -68 3 c-37 2 -67 2 -67 0z"/>
</g>
</svg>
